<mxfile host="65bd71144e">
    <diagram id="8ukTKjJSscvAXjEcEefS" name="페이지-1">
        <mxGraphModel dx="1027" dy="729" grid="1" gridSize="10" guides="1" tooltips="1" connect="1" arrows="1" fold="1" page="1" pageScale="1" pageWidth="827" pageHeight="1169" math="0" shadow="0">
            <root>
                <mxCell id="0"/>
                <mxCell id="1" parent="0"/>
                <mxCell id="2" value="Movie" style="swimlane;fontStyle=1;align=center;verticalAlign=top;childLayout=stackLayout;horizontal=1;startSize=26;horizontalStack=0;resizeParent=1;resizeParentMax=0;resizeLast=0;collapsible=1;marginBottom=0;whiteSpace=wrap;html=1;" parent="1" vertex="1">
                    <mxGeometry x="60" y="100" width="140" height="52" as="geometry"/>
                </mxCell>
                <mxCell id="8" value="- calculateMovieFee()" style="text;strokeColor=none;fillColor=none;align=left;verticalAlign=top;spacingLeft=4;spacingRight=4;overflow=hidden;rotatable=0;points=[[0,0.5],[1,0.5]];portConstraint=eastwest;whiteSpace=wrap;html=1;" parent="2" vertex="1">
                    <mxGeometry y="26" width="140" height="26" as="geometry"/>
                </mxCell>
                <mxCell id="69" style="edgeStyle=none;html=1;exitX=1;exitY=0.5;exitDx=0;exitDy=0;entryX=0;entryY=0.5;entryDx=0;entryDy=0;strokeWidth=2;" edge="1" parent="1" source="16" target="65">
                    <mxGeometry relative="1" as="geometry"/>
                </mxCell>
                <mxCell id="16" value="DiscountPolicy" style="swimlane;fontStyle=1;align=center;verticalAlign=top;childLayout=stackLayout;horizontal=1;startSize=26;horizontalStack=0;resizeParent=1;resizeParentMax=0;resizeLast=0;collapsible=1;marginBottom=0;whiteSpace=wrap;html=1;" parent="1" vertex="1">
                    <mxGeometry x="320" y="96" width="200" height="60" as="geometry"/>
                </mxCell>
                <mxCell id="17" value="- calculateDiscountAmount()" style="text;strokeColor=none;fillColor=none;align=left;verticalAlign=top;spacingLeft=4;spacingRight=4;overflow=hidden;rotatable=0;points=[[0,0.5],[1,0.5]];portConstraint=eastwest;whiteSpace=wrap;html=1;" parent="16" vertex="1">
                    <mxGeometry y="26" width="200" height="34" as="geometry"/>
                </mxCell>
                <mxCell id="19" value="" style="endArrow=classic;html=1;exitX=1;exitY=0.5;exitDx=0;exitDy=0;strokeWidth=2;" parent="1" source="2" edge="1">
                    <mxGeometry width="50" height="50" relative="1" as="geometry">
                        <mxPoint x="580" y="171" as="sourcePoint"/>
                        <mxPoint x="320" y="126" as="targetPoint"/>
                    </mxGeometry>
                </mxCell>
                <mxCell id="24" value="AmountDiscountPolicy" style="swimlane;fontStyle=1;align=center;verticalAlign=top;childLayout=stackLayout;horizontal=1;startSize=26;horizontalStack=0;resizeParent=1;resizeParentMax=0;resizeLast=0;collapsible=1;marginBottom=0;whiteSpace=wrap;html=1;" parent="1" vertex="1">
                    <mxGeometry x="214" y="260" width="170" height="52" as="geometry"/>
                </mxCell>
                <mxCell id="26" value="- getDiscountAmount()" style="text;strokeColor=none;fillColor=none;align=left;verticalAlign=top;spacingLeft=4;spacingRight=4;overflow=hidden;rotatable=0;points=[[0,0.5],[1,0.5]];portConstraint=eastwest;whiteSpace=wrap;html=1;" parent="24" vertex="1">
                    <mxGeometry y="26" width="170" height="26" as="geometry"/>
                </mxCell>
                <mxCell id="29" value="" style="edgeStyle=elbowEdgeStyle;elbow=vertical;endArrow=classic;html=1;curved=0;rounded=0;endSize=8;startSize=8;exitX=0.5;exitY=0;exitDx=0;exitDy=0;strokeWidth=2;entryX=0.501;entryY=1.067;entryDx=0;entryDy=0;entryPerimeter=0;" parent="1" source="24" target="17" edge="1">
                    <mxGeometry width="50" height="50" relative="1" as="geometry">
                        <mxPoint x="590" y="370" as="sourcePoint"/>
                        <mxPoint x="420" y="170" as="targetPoint"/>
                        <Array as="points">
                            <mxPoint x="360" y="210"/>
                        </Array>
                    </mxGeometry>
                </mxCell>
                <mxCell id="31" value="PercentDiscountPolicy" style="swimlane;fontStyle=1;align=center;verticalAlign=top;childLayout=stackLayout;horizontal=1;startSize=26;horizontalStack=0;resizeParent=1;resizeParentMax=0;resizeLast=0;collapsible=1;marginBottom=0;whiteSpace=wrap;html=1;" parent="1" vertex="1">
                    <mxGeometry x="444" y="260" width="170" height="52" as="geometry"/>
                </mxCell>
                <mxCell id="33" value="- getDiscountAmount()" style="text;strokeColor=none;fillColor=none;align=left;verticalAlign=top;spacingLeft=4;spacingRight=4;overflow=hidden;rotatable=0;points=[[0,0.5],[1,0.5]];portConstraint=eastwest;whiteSpace=wrap;html=1;" parent="31" vertex="1">
                    <mxGeometry y="26" width="170" height="26" as="geometry"/>
                </mxCell>
                <mxCell id="37" value="discountPolicy" style="whiteSpace=wrap;html=1;opacity=0;" parent="1" vertex="1">
                    <mxGeometry x="200" y="80" width="120" height="60" as="geometry"/>
                </mxCell>
                <mxCell id="38" value="" style="edgeStyle=elbowEdgeStyle;elbow=vertical;endArrow=classic;html=1;curved=0;rounded=0;endSize=8;startSize=8;exitX=0.5;exitY=0;exitDx=0;exitDy=0;strokeWidth=2;" parent="1" source="31" edge="1">
                    <mxGeometry width="50" height="50" relative="1" as="geometry">
                        <mxPoint x="570" y="370" as="sourcePoint"/>
                        <mxPoint x="420" y="160" as="targetPoint"/>
                        <Array as="points">
                            <mxPoint x="480" y="210"/>
                        </Array>
                    </mxGeometry>
                </mxCell>
                <mxCell id="65" value="&amp;lt;&amp;lt; interface &amp;gt;&amp;gt;&lt;br&gt;&lt;span style=&quot;font-weight: 700;&quot;&gt;DiscountCondition&lt;/span&gt;" style="swimlane;fontStyle=0;childLayout=stackLayout;horizontal=1;startSize=40;fillColor=none;horizontalStack=0;resizeParent=1;resizeParentMax=0;resizeLast=0;collapsible=1;marginBottom=0;html=1;" vertex="1" parent="1">
                    <mxGeometry x="760" y="93" width="160" height="66" as="geometry">
                        <mxRectangle x="510" y="360" width="60" height="30" as="alternateBounds"/>
                    </mxGeometry>
                </mxCell>
                <mxCell id="66" value="- isSatisfiedBy()" style="text;strokeColor=none;fillColor=none;align=left;verticalAlign=top;spacingLeft=4;spacingRight=4;overflow=hidden;rotatable=0;points=[[0,0.5],[1,0.5]];portConstraint=eastwest;whiteSpace=wrap;html=1;" vertex="1" parent="65">
                    <mxGeometry y="40" width="160" height="26" as="geometry"/>
                </mxCell>
                <mxCell id="70" value="conditions" style="whiteSpace=wrap;html=1;opacity=0;" vertex="1" parent="1">
                    <mxGeometry x="580" y="80" width="120" height="60" as="geometry"/>
                </mxCell>
                <mxCell id="71" value="SequenceCondition" style="swimlane;fontStyle=1;align=center;verticalAlign=top;childLayout=stackLayout;horizontal=1;startSize=26;horizontalStack=0;resizeParent=1;resizeParentMax=0;resizeLast=0;collapsible=1;marginBottom=0;whiteSpace=wrap;html=1;" vertex="1" parent="1">
                    <mxGeometry x="685" y="260" width="130" height="52" as="geometry"/>
                </mxCell>
                <mxCell id="73" value="- isSatisfiedBy()" style="text;strokeColor=none;fillColor=none;align=left;verticalAlign=top;spacingLeft=4;spacingRight=4;overflow=hidden;rotatable=0;points=[[0,0.5],[1,0.5]];portConstraint=eastwest;whiteSpace=wrap;html=1;" vertex="1" parent="71">
                    <mxGeometry y="26" width="130" height="26" as="geometry"/>
                </mxCell>
                <mxCell id="75" value="PeriodCondition" style="swimlane;fontStyle=1;align=center;verticalAlign=top;childLayout=stackLayout;horizontal=1;startSize=26;horizontalStack=0;resizeParent=1;resizeParentMax=0;resizeLast=0;collapsible=1;marginBottom=0;whiteSpace=wrap;html=1;" vertex="1" parent="1">
                    <mxGeometry x="852" y="260" width="143" height="52" as="geometry"/>
                </mxCell>
                <mxCell id="79" value="- isSatisfiedBy()" style="text;strokeColor=none;fillColor=none;align=left;verticalAlign=top;spacingLeft=4;spacingRight=4;overflow=hidden;rotatable=0;points=[[0,0.5],[1,0.5]];portConstraint=eastwest;whiteSpace=wrap;html=1;" vertex="1" parent="75">
                    <mxGeometry y="26" width="143" height="26" as="geometry"/>
                </mxCell>
                <mxCell id="81" value="" style="edgeStyle=elbowEdgeStyle;elbow=vertical;endArrow=classic;html=1;curved=0;rounded=0;endSize=8;startSize=8;exitX=0.5;exitY=0;exitDx=0;exitDy=0;entryX=0.494;entryY=1;entryDx=0;entryDy=0;entryPerimeter=0;dashed=1;strokeWidth=2;" edge="1" parent="1" source="71" target="66">
                    <mxGeometry width="50" height="50" relative="1" as="geometry">
                        <mxPoint x="1120" y="440" as="sourcePoint"/>
                        <mxPoint x="1170" y="390" as="targetPoint"/>
                    </mxGeometry>
                </mxCell>
                <mxCell id="82" value="" style="edgeStyle=elbowEdgeStyle;elbow=vertical;endArrow=classic;html=1;curved=0;rounded=0;endSize=8;startSize=8;exitX=0.5;exitY=0;exitDx=0;exitDy=0;dashed=1;strokeWidth=2;" edge="1" parent="1" source="75">
                    <mxGeometry width="50" height="50" relative="1" as="geometry">
                        <mxPoint x="1214.5" y="290" as="sourcePoint"/>
                        <mxPoint x="840" y="160" as="targetPoint"/>
                        <Array as="points">
                            <mxPoint x="910" y="210"/>
                        </Array>
                    </mxGeometry>
                </mxCell>
            </root>
        </mxGraphModel>
    </diagram>
</mxfile>